2.2Hz3min_grf.mot
version=1
nRows=30
nColumns 19
inDegrees=yes
endheader
time	1_ground_force_vx	1_ground_force_vy	1_ground_force_vz	1_ground_force_px	1_ground_force_py	1_ground_force_pz	1_ground_torque_x	1_ground_torque_y	1_ground_torque_z	2_ground_force_vx	2_ground_force_vy	2_ground_force_vz	2_ground_force_px	2_ground_force_py	2_ground_force_pz	2_ground_torque_x	2_ground_torque_y	2_ground_torque_z
            2.502500	           -0.329608	          261.295976	          -20.110696	           -0.268067	            0.006289	           -0.422211	            0.001267	           -1.004750	            0.077331	            8.901843	          303.543801	           43.924604	           -0.241329	            0.005774	           -0.742977	           -0.168701	           -5.752528	           -0.832425
            2.503000	           -0.465095	          256.967410	          -19.624491	           -0.267765	            0.006291	           -0.422605	            0.001652	           -0.912959	            0.069722	            8.823327	          299.308881	           43.674891	           -0.240852	            0.005776	           -0.743144	           -0.170567	           -5.786036	           -0.844293
            2.503500	           -0.647141	          252.820251	          -19.412534	           -0.267463	            0.006290	           -0.422418	            0.002309	           -0.902164	            0.069272	            8.839072	          294.890995	           43.189841	           -0.240683	            0.005777	           -0.743078	           -0.175382	           -5.851122	           -0.856957
            2.504000	           -0.782385	          249.031893	          -18.786442	           -0.267433	            0.006289	           -0.422212	            0.003209	           -1.021461	            0.077057	            8.293324	          290.286603	           42.798229	           -0.240494	            0.005778	           -0.743356	           -0.165859	           -5.805466	           -0.855925
            2.504500	           -0.781254	          244.704927	          -18.667426	           -0.267580	            0.006291	           -0.422536	            0.003297	           -1.032710	            0.078781	            8.076273	          285.498586	           42.593532	           -0.240489	            0.005777	           -0.743015	           -0.162863	           -5.757269	           -0.858927
            2.505000	           -1.008948	          240.737661	          -18.362871	           -0.267117	            0.006292	           -0.422974	            0.004652	           -1.110001	            0.084668	            8.281596	          280.527448	           42.528784	           -0.240381	            0.005780	           -0.743644	           -0.170147	           -5.763496	           -0.873763
            2.505500	           -1.282599	          236.770584	          -18.104058	           -0.267021	            0.006290	           -0.422323	            0.006119	           -1.129523	            0.086366	            7.877748	          275.555054	           42.182726	           -0.240014	            0.005779	           -0.743160	           -0.164920	           -5.768738	           -0.883094
            2.506000	           -1.143387	          233.163527	          -17.707155	           -0.266749	            0.006287	           -0.421781	            0.005017	           -1.023140	            0.077700	            7.702791	          272.057089	           41.747969	           -0.240101	            0.005780	           -0.743372	           -0.163608	           -5.778529	           -0.886732
            2.506500	           -1.645863	          229.556150	          -17.262804	           -0.266036	            0.006287	           -0.421692	            0.007014	           -0.978234	            0.073564	            7.343134	          267.821488	           41.404519	           -0.240147	            0.005782	           -0.743955	           -0.157614	           -5.748549	           -0.888711
            2.507000	           -1.690038	          225.408458	          -16.913621	           -0.266388	            0.006287	           -0.421772	            0.007227	           -0.963926	            0.072329	            7.172850	          263.034309	           41.012090	           -0.240367	            0.005781	           -0.744026	           -0.155158	           -5.689759	           -0.887142
            2.507500	           -1.825900	          221.260748	          -16.564210	           -0.265618	            0.006289	           -0.422193	            0.008666	           -1.050181	            0.078620	            6.723399	          257.694134	           40.477026	           -0.239926	            0.005782	           -0.743673	           -0.148339	           -5.685537	           -0.893050
            2.508000	           -2.054522	          218.015922	          -16.577555	           -0.265230	            0.006286	           -0.421487	            0.010744	           -1.140138	            0.086694	            6.638216	          255.300879	           40.186955	           -0.239627	            0.005785	           -0.744298	           -0.147620	           -5.677363	           -0.893675
            2.508500	           -2.052447	          213.507117	          -16.092464	           -0.265452	            0.006287	           -0.421735	            0.010816	           -1.125150	            0.084805	            6.514803	          250.513672	           39.841435	           -0.239063	            0.005786	           -0.744013	           -0.147230	           -5.661430	           -0.900388
            2.509000	           -2.280369	          209.540245	          -15.879620	           -0.264806	            0.006289	           -0.421979	            0.010953	           -1.006440	            0.076271	            6.483842	          246.094445	           39.684901	           -0.239435	            0.005785	           -0.744091	           -0.149389	           -5.670078	           -0.914350
            2.509500	           -2.461570	          205.752075	          -15.299271	           -0.264677	            0.006288	           -0.421822	            0.011877	           -0.992738	            0.073818	            6.027039	          242.780275	           39.063208	           -0.239603	            0.005785	           -0.744460	           -0.141348	           -5.693769	           -0.916124
            2.510000	           -2.368591	          201.785265	          -15.087224	           -0.264021	            0.006286	           -0.421433	            0.010476	           -0.892436	            0.066726	            5.855631	          238.359704	           39.141374	           -0.238910	            0.005787	           -0.744212	           -0.138405	           -5.633907	           -0.925152
            2.510500	           -2.596705	          196.377054	          -15.063988	           -0.263712	            0.006292	           -0.422746	            0.012801	           -0.968047	            0.074258	            5.684559	          233.757670	           38.468034	           -0.238783	            0.005788	           -0.744454	           -0.137257	           -5.644228	           -0.928835
            2.511000	           -2.915174	          192.408198	          -14.392358	           -0.263541	            0.006291	           -0.422526	            0.015548	           -1.026182	            0.076760	            5.465555	          229.521739	           38.359165	           -0.238535	            0.005790	           -0.744592	           -0.133649	           -5.612473	           -0.937993
            2.511500	           -3.281310	          189.703945	          -14.357186	           -0.263106	            0.006287	           -0.421420	            0.019529	           -1.129022	            0.085447	            5.194404	          226.758659	           38.302501	           -0.238086	            0.005792	           -0.744808	           -0.128003	           -5.587897	           -0.943869
            2.512000	           -2.959119	          186.998646	          -14.048586	           -0.262316	            0.006283	           -0.420659	            0.016590	           -1.048386	            0.078762	            5.161991	          222.708749	           37.865712	           -0.238669	            0.005791	           -0.744970	           -0.129622	           -5.592421	           -0.950843
            2.512500	           -3.369580	          181.588630	          -13.612191	           -0.262322	            0.006287	           -0.421443	            0.018613	           -1.003083	            0.075193	            4.988322	          218.842775	           37.335785	           -0.238409	            0.005792	           -0.745026	           -0.127873	           -5.609921	           -0.957083
            2.513000	           -3.643848	          177.262201	          -13.630060	           -0.261999	            0.006287	           -0.421588	            0.018627	           -0.906123	            0.069674	            4.721118	          214.975155	           37.181322	           -0.237889	            0.005795	           -0.745325	           -0.121974	           -5.554058	           -0.960610
            2.513500	           -3.734112	          173.835759	          -13.323527	           -0.261598	            0.006288	           -0.421768	            0.018933	           -0.881395	            0.067554	            4.548361	          210.923064	           37.213874	           -0.237520	            0.005798	           -0.745848	           -0.120492	           -5.587637	           -0.985846
            2.514000	           -3.960718	          170.767659	          -12.510692	           -0.261186	            0.006283	           -0.420578	            0.022315	           -0.962136	            0.070488	            4.280389	          207.240421	           36.825428	           -0.237414	            0.005797	           -0.745530	           -0.115006	           -5.568164	           -0.989431
            2.514500	           -4.234207	          167.160720	          -12.158622	           -0.260778	            0.006282	           -0.420210	            0.027282	           -1.077047	            0.078340	            4.055945	          204.478682	           36.440247	           -0.237303	            0.005800	           -0.746244	           -0.110040	           -5.547637	           -0.988647
            2.515000	           -4.278871	          163.194080	          -11.992089	           -0.260704	            0.006282	           -0.420358	            0.031036	           -1.183680	            0.086981	            3.881029	          200.980351	           36.099345	           -0.237456	            0.005799	           -0.746015	           -0.106903	           -5.536024	           -0.994360
            2.515500	           -4.507164	          158.146596	          -12.013163	           -0.259694	            0.006287	           -0.421489	            0.030319	           -1.063818	            0.080810	            3.569572	          196.376470	           35.801490	           -0.236689	            0.005801	           -0.745931	           -0.099597	           -5.479239	           -0.998923
            2.516000	           -4.735511	          155.261712	          -11.887394	           -0.259634	            0.006286	           -0.421148	            0.032003	           -1.049270	            0.080336	            3.491720	          191.957409	           35.551120	           -0.236682	            0.005801	           -0.745969	           -0.100178	           -5.507301	           -1.019970
            2.516500	           -4.596641	          151.655245	          -11.628059	           -0.259105	            0.006279	           -0.419497	            0.025131	           -0.829140	            0.063574	            3.456087	          188.827396	           35.352257	           -0.235754	            0.005805	           -0.746104	           -0.099764	           -5.450703	           -1.020480
            2.517000	           -5.008081	          147.868800	          -11.459844	           -0.258540	            0.006283	           -0.420315	            0.031223	           -0.921906	            0.071448	            3.374165	          185.513879	           34.918117	           -0.235861	            0.005809	           -0.747273	           -0.099631	           -5.477770	           -1.031046
